<svg xmlns="http://www.w3.org/2000/svg" xmlns:xlink="http://www.w3.org/1999/xlink" width="193.036" height="42.003" viewBox="0 0 193.036 42.003">
  <defs>
    <clipPath id="clip-path">
      <rect id="Rectángulo_144" data-name="Rectángulo 144" width="193.036" height="42.003" transform="translate(0.314 0.459)" fill="#fff"/>
    </clipPath>
  </defs>
  <g id="ClaroBanner" transform="translate(-0.314 -0.459)" clip-path="url(#clip-path)">
    <path id="Trazado_2023" data-name="Trazado 2023" d="M28,26.863a13.877,13.877,0,0,1-14.9,10.41A14.33,14.33,0,0,1,.317,23.237C.188,15.614,6.4,9.47,12.644,8.821A14.031,14.031,0,0,1,28,19.226c-.163.011-.32.031-.477.031-1.519,0-3.038-.016-4.557.009a.91.91,0,0,1-.941-.538,8.573,8.573,0,0,0-5.656-4.336,8.867,8.867,0,0,0-5.794,16.6A8.587,8.587,0,0,0,21.433,28.33a3.3,3.3,0,0,0,.487-.726c.241-.687.728-.769,1.37-.752,1.552.04,3.106.013,4.709.013Z" transform="translate(0 4.75)" fill="#fff"/>
    <path id="Trazado_2024" data-name="Trazado 2024" d="M111.235,7.927c.132-.013.255-.036.378-.036,1.661,0,3.323,0,5.041,0v9.832c.109-.025.172-.021.2-.051,2.062-2.053,4.568-2.3,7.235-1.7a6.252,6.252,0,0,1,5.078,5.459,30.8,30.8,0,0,1-.031,11.081c-.691,3.572-2.98,5.436-6.618,5.661a6.924,6.924,0,0,1-5.793-2.057.757.757,0,0,0-.128-.1c-.009-.007-.033,0-.093.017V37.9h-5.272V7.927Zm12.959,19c-.153-1.241-.246-2.5-.475-3.731a2.929,2.929,0,0,0-1.68-2.237,3.472,3.472,0,0,0-5.091,2.541,19.353,19.353,0,0,0-.076,6.5,3.529,3.529,0,0,0,1.65,2.829,3.467,3.467,0,0,0,5.211-2.234A36.372,36.372,0,0,0,124.194,26.924Z" transform="translate(63.693 4.267)" fill="#1b1b1b"/>
    <path id="Trazado_2025" data-name="Trazado 2025" d="M31.143,20H25.778c.1-3.305,1.579-5.956,4.6-6.945a14.407,14.407,0,0,1,10.6.478,5.18,5.18,0,0,1,3.159,4.81c.086,1.422.043,2.854.044,4.281,0,4.025-.011,8.052.016,12.078,0,.578-.179.709-.715.7-1.391-.033-2.781-.027-4.172,0-.444.008-.635-.112-.6-.582.034-.506.008-1.017.008-1.595-.649.383-1.2.773-1.8,1.05a11.012,11.012,0,0,1-7.32.83,5.344,5.344,0,0,1-4.255-4.968,8.3,8.3,0,0,1,.607-4.4,6.038,6.038,0,0,1,4.219-3.3c1.889-.481,3.83-.757,5.749-1.119.377-.071.758-.119,1.132-.2a1.889,1.889,0,0,0,1.493-1.426,2.062,2.062,0,0,0-.985-2.2,5.926,5.926,0,0,0-4.487-.23,2.677,2.677,0,0,0-1.7,1.947c-.08.261-.146.526-.223.807Zm7.375,4.276c-.824.276-1.5.542-2.195.726-.952.252-1.922.434-2.883.656-2.052.473-2.869,1.568-2.7,3.595a2.215,2.215,0,0,0,1.875,2.136,5.574,5.574,0,0,0,2.061-.021c2.151-.489,3.322-1.49,3.619-3.388a36.776,36.776,0,0,0,.219-3.7Z" transform="translate(14.337 6.783)" fill="#fff"/>
    <path id="Trazado_2026" data-name="Trazado 2026" d="M59.513,12.353A11.423,11.423,0,0,1,70.941,23.929,11.548,11.548,0,0,1,59.429,35.521c-5.929.048-11.445-5.351-11.38-11.7C48.11,17.812,53.244,12.184,59.513,12.353Zm.023,5.474c-3.361-.233-6.136,2.951-6.1,6a6.069,6.069,0,1,0,12.136.109,5.947,5.947,0,0,0-6.037-6.115Z" transform="translate(27.411 6.828)" fill="#fff"/>
    <path id="Trazado_2027" data-name="Trazado 2027" d="M109.675,33a7.72,7.72,0,0,1-3.432,1.968c-4.551,1.134-9.191-1.273-9.4-6.765-.187-4.972-.057-9.957-.065-14.936a1.489,1.489,0,0,1,.043-.221c.181-.01.373-.031.566-.031,1.409,0,2.82.019,4.229-.012.5-.011.651.124.65.638q-.033,6.178,0,12.356a6.969,6.969,0,0,0,.247,1.946,3.346,3.346,0,0,0,3.7,2.354,3.39,3.39,0,0,0,3.208-2.813,7.752,7.752,0,0,0,.12-1.363q.014-6.2.006-12.412v-.647H115V34.958h-5.329Z" transform="translate(55.374 7.205)" fill="#1b1b1b"/>
    <path id="Trazado_2028" data-name="Trazado 2028" d="M93.865,15.759l-3.715,3.7c-.118-.109-.258-.223-.381-.354a4.157,4.157,0,0,0-7.157,2,12.306,12.306,0,0,0,.051,6.138,4.137,4.137,0,0,0,7.021,1.919,6.147,6.147,0,0,0,.428-.548l3.668,3.818a8.87,8.87,0,0,1-2.491,1.88,10.6,10.6,0,0,1-11.315-1.372,9.24,9.24,0,0,1-2.807-5.282,16.221,16.221,0,0,1,.55-9.024,8.584,8.584,0,0,1,7.7-5.7A9.815,9.815,0,0,1,92.642,14.7C93.075,15.027,93.465,15.409,93.865,15.759Z" transform="translate(43.911 7.114)" fill="#1b1b1b"/>
    <path id="Trazado_2029" data-name="Trazado 2029" d="M89.152,7.908h5.436c.014.271.038.536.038.8q0,11.008,0,22.016c0,2.162.389,2.547,2.563,2.545h1.448v4.653c-1.833-.057-3.65.2-5.417-.344A5.759,5.759,0,0,1,89.2,32.408c-.03-.382-.042-.768-.042-1.152q0-11.337,0-22.675V7.908Z" transform="translate(51.014 4.277)" fill="#1b1b1b"/>
    <path id="Trazado_2030" data-name="Trazado 2030" d="M39.7,13.373c1.642,0,3.213,0,4.785,0,.31,0,.407.137.4.437-.015.71-.006,1.42-.006,2.314a9.5,9.5,0,0,1,3.337-2.8,9.117,9.117,0,0,1,4.108-.905v5.449c-.382,0-.777.023-1.167,0a5.555,5.555,0,0,0-5.922,4.78,15.613,15.613,0,0,0-.133,2.076q-.021,4.966,0,9.933c0,.493-.115.67-.636.658-1.408-.034-2.817-.025-4.225,0-.455.008-.589-.142-.588-.6q.02-10.428.01-20.854c0-.16.022-.321.034-.489Z" transform="translate(22.592 6.865)" fill="#fff"/>
    <path id="Trazado_2031" data-name="Trazado 2031" d="M19.788,8.784c.221-.013.416-.034.612-.034,1.408,0,2.817.014,4.226-.009.437-.007.6.1.6.573q-.018,13.775,0,27.551c0,.388-.087.558-.516.551q-2.223-.033-4.445,0c-.424.006-.519-.156-.518-.547q.013-13.775.009-27.551c0-.161.019-.323.031-.535Z" transform="translate(11.159 4.756)" fill="#fff"/>
    <path id="Trazado_2032" data-name="Trazado 2032" d="M74.213,2.327l3.36,3.326Q71,12.209,64.415,18.771L61.08,15.41Z" transform="translate(34.894 1.073)" fill="#fff"/>
    <path id="Trazado_2033" data-name="Trazado 2033" d="M64.778,21.19V16.421H79.215V21.19Z" transform="translate(37.018 9.166)" fill="#fff"/>
    <path id="Trazado_2034" data-name="Trazado 2034" d="M59.035,14.672c-1.542,0-3.038.007-4.534-.014-.108,0-.236-.2-.309-.325-.047-.083-.01-.214-.01-.324,0-4.3.009-8.6-.011-12.9,0-.5.132-.665.637-.652,1.261.032,2.524.021,3.786.011.333,0,.49.07.489.455-.012,4.463-.008,8.927-.01,13.389,0,.089-.017.178-.037.357Z" transform="translate(30.925 0.001)" fill="#fff"/>
  </g>
</svg>
