<svg id="Grupo_788" data-name="Grupo 788" xmlns="http://www.w3.org/2000/svg" width="24" height="24" viewBox="0 0 24 24">
  <path id="Trazado_2062" data-name="Trazado 2062" d="M0,0H24V24H0Z" fill="none"/>
  <path id="Trazado_2063" data-name="Trazado 2063" d="M10,6V9" fill="none" stroke="#2c3e50" stroke-linecap="round" stroke-linejoin="round" stroke-width="1.5"/>
  <path id="Trazado_2064" data-name="Trazado 2064" d="M14,6V9" fill="none" stroke="#2c3e50" stroke-linecap="round" stroke-linejoin="round" stroke-width="1.5"/>
  <path id="Trazado_2065" data-name="Trazado 2065" d="M5,9m0,2A2,2,0,0,1,7,9H17a2,2,0,0,1,2,2v8a2,2,0,0,1-2,2H7a2,2,0,0,1-2-2Z" fill="none" stroke="#2c3e50" stroke-linecap="round" stroke-linejoin="round" stroke-width="1.5"/>
  <path id="Trazado_2066" data-name="Trazado 2066" d="M12,15m-2,0a2,2,0,1,0,2-2,2,2,0,0,0-2,2" fill="none" stroke="#2c3e50" stroke-linecap="round" stroke-linejoin="round" stroke-width="1.5"/>
  <path id="Trazado_2067" data-name="Trazado 2067" d="M9,3h6V6H9Z" fill="none" stroke="#2c3e50" stroke-linecap="round" stroke-linejoin="round" stroke-width="1.5"/>
</svg>
