<svg id="Grupo_790" data-name="Grupo 790" xmlns="http://www.w3.org/2000/svg" width="24" height="24" viewBox="0 0 24 24">
  <path id="Trazado_2079" data-name="Trazado 2079" d="M0,0H24V24H0Z" fill="none"/>
  <path id="Trazado_2080" data-name="Trazado 2080" d="M4,11H20a1,1,0,0,1,1,1v.5c0,1.5-2.517,5.573-4,6.5v1a1,1,0,0,1-1,1H8a1,1,0,0,1-1-1V19c-1.687-1.054-4-5-4-6.5V12A1,1,0,0,1,4,11Z" fill="none" stroke="#2c3e50" stroke-linecap="round" stroke-linejoin="round" stroke-width="1.5"/>
  <path id="Trazado_2081" data-name="Trazado 2081" d="M18.5,11A13.9,13.9,0,0,0,19,7.286V6H16.744c-2.83,0-4.616.8-5.64,2.076" fill="none" stroke="#2c3e50" stroke-linecap="round" stroke-linejoin="round" stroke-width="1.5"/>
  <path id="Trazado_2082" data-name="Trazado 2082" d="M5.255,11.008A12.2,12.2,0,0,1,5,9V8H6.755a7.855,7.855,0,0,1,2.479.35" fill="none" stroke="#2c3e50" stroke-linecap="round" stroke-linejoin="round" stroke-width="1.5"/>
  <path id="Trazado_2083" data-name="Trazado 2083" d="M8,8,9,4l4,2.5" fill="none" stroke="#2c3e50" stroke-linecap="round" stroke-linejoin="round" stroke-width="1.5"/>
  <path id="Trazado_2084" data-name="Trazado 2084" d="M13,11v-.5a2.5,2.5,0,1,0-5,0V11" fill="none" stroke="#2c3e50" stroke-linecap="round" stroke-linejoin="round" stroke-width="1.5"/>
</svg>
