<svg id="Grupo_47" data-name="Grupo 47" xmlns="http://www.w3.org/2000/svg" width="43" height="43" viewBox="0 0 43 43">
  <path id="Trazado_41" data-name="Trazado 41" d="M0,0H43V43H0Z" fill="rgba(0,0,0,0)"/>
  <path id="Trazado_42" data-name="Trazado 42" d="M9,19.75,19.75,9" transform="translate(7.125 7.125)" fill="rgba(0,0,0,0)" stroke="#d92a1c" stroke-linecap="round" stroke-linejoin="round" stroke-width="3"/>
  <circle id="Elipse_1" data-name="Elipse 1" cx="0.5" cy="0.5" r="0.5" transform="translate(16 16)" fill="#d92a1c" stroke="#d92a1c" stroke-linecap="round" stroke-linejoin="round" stroke-width="3"/>
  <circle id="Elipse_2" data-name="Elipse 2" cx="0.5" cy="0.5" r="0.5" transform="translate(26 26)" fill="#d92a1c" stroke="#d92a1c" stroke-linecap="round" stroke-linejoin="round" stroke-width="3"/>
  <path id="Trazado_43" data-name="Trazado 43" d="M6.574,10.516a3.942,3.942,0,0,1,3.942-3.942h1.792a3.942,3.942,0,0,0,2.777-1.147l1.254-1.254a3.942,3.942,0,0,1,5.59,0l1.254,1.254A3.942,3.942,0,0,0,25.96,6.574h1.792a3.942,3.942,0,0,1,3.942,3.942v1.792a3.942,3.942,0,0,0,1.147,2.777l1.254,1.254a3.942,3.942,0,0,1,0,5.59L32.84,23.183a3.942,3.942,0,0,0-1.147,2.777v1.792a3.942,3.942,0,0,1-3.942,3.942H25.96a3.942,3.942,0,0,0-2.777,1.147l-1.254,1.254a3.942,3.942,0,0,1-5.59,0L15.085,32.84a3.942,3.942,0,0,0-2.777-1.147H10.516a3.942,3.942,0,0,1-3.942-3.942V25.96a3.942,3.942,0,0,0-1.147-2.777L4.174,21.929a3.942,3.942,0,0,1,0-5.59l1.254-1.254a3.942,3.942,0,0,0,1.147-2.777V10.516" transform="translate(2.384 2.384)" fill="rgba(0,0,0,0)" stroke="#d92a1c" stroke-linecap="round" stroke-linejoin="round" stroke-width="3"/>
</svg>
