<svg id="Grupo_787" data-name="Grupo 787" xmlns="http://www.w3.org/2000/svg" width="24" height="24" viewBox="0 0 24 24">
  <path id="Trazado_2057" data-name="Trazado 2057" d="M0,0H24V24H0Z" fill="none"/>
  <path id="Trazado_2058" data-name="Trazado 2058" d="M10,14a2,2,0,1,0,2-2,2,2,0,0,0-2,2" fill="none" stroke="#2c3e50" stroke-linecap="round" stroke-linejoin="round" stroke-width="1.5"/>
  <path id="Trazado_2059" data-name="Trazado 2059" d="M5,8H19a2,2,0,0,1,1.977,2.3l-1.255,7.152A3,3,0,0,1,16.756,20H7.244a3,3,0,0,1-2.965-2.544L3.024,10.3A2,2,0,0,1,5,8Z" fill="none" stroke="#2c3e50" stroke-linecap="round" stroke-linejoin="round" stroke-width="1.5"/>
  <path id="Trazado_2060" data-name="Trazado 2060" d="M17,10,15,4" fill="none" stroke="#2c3e50" stroke-linecap="round" stroke-linejoin="round" stroke-width="1.5"/>
  <path id="Trazado_2061" data-name="Trazado 2061" d="M7,10,9,4" fill="none" stroke="#2c3e50" stroke-linecap="round" stroke-linejoin="round" stroke-width="1.5"/>
</svg>
