<svg id="Grupo_801" data-name="Grupo 801" xmlns="http://www.w3.org/2000/svg" width="24" height="24" viewBox="0 0 24 24">
  <path id="Trazado_2099" data-name="Trazado 2099" d="M0,0H24V24H0Z" fill="none"/>
  <path id="Trazado_2100" data-name="Trazado 2100" d="M7,7,7,9.667A2.667,2.667,0,0,1,9.667,7h8.666A2.667,2.667,0,0,1,21,9.667v8.666A2.667,2.667,0,0,1,18.333,21H9.667A2.667,2.667,0,0,1,7,18.333Z" fill="none" stroke="#2c3e50" stroke-linecap="round" stroke-linejoin="round" stroke-width="1.5"/>
  <path id="Trazado_2101" data-name="Trazado 2101" d="M4.012,16.737A2,2,0,0,1,3,15V5A2.006,2.006,0,0,1,5,3H15a1.606,1.606,0,0,1,1.5,1" fill="none" stroke="#2c3e50" stroke-linecap="round" stroke-linejoin="round" stroke-width="1.5"/>
</svg>
